<?xml version="1.0" encoding="UTF-8" standalone="no"?>
<!-- Created with Inkscape (http://www.inkscape.org/) -->

<svg
   version="1.1"
   id="svg1"
   width="513.33331"
   height="456"
   viewBox="0 0 513.33331 456"
   sodipodi:docname="hmPage2.png"
   inkscape:export-filename="logo_new.svg"
   inkscape:export-xdpi="96"
   inkscape:export-ydpi="96"
   xmlns:inkscape="http://www.inkscape.org/namespaces/inkscape"
   xmlns:sodipodi="http://sodipodi.sourceforge.net/DTD/sodipodi-0.dtd"
   xmlns:xlink="http://www.w3.org/1999/xlink"
   xmlns="http://www.w3.org/2000/svg"
   xmlns:svg="http://www.w3.org/2000/svg">
  <defs
     id="defs1">
    <linearGradient
       id="swatch30"
       inkscape:swatch="solid">
      <stop
         style="stop-color:#000000;stop-opacity:1;"
         offset="0"
         id="stop30" />
    </linearGradient>
    <linearGradient
       inkscape:collect="always"
       xlink:href="#swatch30"
       id="linearGradient30"
       x1="-350.66562"
       y1="271.22345"
       x2="-113.97545"
       y2="271.22345"
       gradientUnits="userSpaceOnUse" />
  </defs>
  <sodipodi:namedview
     id="namedview1"
     pagecolor="#ffffff"
     bordercolor="#000000"
     borderopacity="0.25"
     inkscape:showpageshadow="2"
     inkscape:pageopacity="0.0"
     inkscape:pagecheckerboard="0"
     inkscape:deskcolor="#d1d1d1" />
  <g
     inkscape:groupmode="layer"
     inkscape:label="Image"
     id="g1">
    <g
       id="g30"
       transform="translate(558.13954,30.139535)">
      <rect
         style="fill:#05046a;fill-opacity:1;stroke-width:0.992674"
         id="rect19"
         width="63.146278"
         height="106.55935"
         x="-494.90897"
         y="29.994486" />
      <path
         id="path1"
         style="fill:#7e7dff;fill-opacity:1;stroke-width:0.997405"
         d="m -379.27162,48.14792 a 118.79394,115.24196 0 0 0 -118.79492,115.24219 118.79394,115.24196 0 0 0 118.79492,115.24219 118.79394,115.24196 0 0 0 28.33203,-3.33789 118.79394,115.24196 0 0 1 -0.30078,-4.07618 118.79394,115.24196 0 0 1 90.66406,-111.70117 118.79394,115.24196 0 0 0 -118.69531,-111.36914 z m 118.69531,111.36914 a 118.79394,115.24196 0 0 1 0.0977,3.87305 118.79394,115.24196 0 0 1 -90.46094,111.9043 118.79394,115.24196 0 0 0 118.49414,111.16601 118.79394,115.24196 0 0 0 118.79297,-115.24219 118.79394,115.24196 0 0 0 -118.79297,-115.24218 118.79394,115.24196 0 0 0 -28.13086,3.54101 z m -119.78711,-55.99219 a 54.069,60.778294 0 0 1 54.07031,60.7793 54.069,60.778294 0 0 1 -54.07031,60.77734 54.069,60.778294 0 0 1 -54.06836,-60.77734 54.069,60.778294 0 0 1 54.06836,-60.7793 z M -233.53725,211.353 a 54.069,60.778294 0 0 1 54.07032,60.7793 54.069,60.778294 0 0 1 -54.07032,60.77734 54.069,60.778294 0 0 1 -54.06836,-60.77734 54.069,60.778294 0 0 1 54.06836,-60.7793 z" />
      <rect
         style="fill:#05046a;fill-opacity:1"
         id="rect20"
         width="19.733213"
         height="45.781052"
         x="-452.28522"
         y="-8.6826134" />
      <ellipse
         style="fill:#05046a;fill-opacity:1;stroke-width:1.3014"
         id="path20"
         cx="-464.73245"
         cy="27.87694"
         rx="30.27907"
         ry="24.27907" />
      <ellipse
         style="fill:#05046a;fill-opacity:1;stroke-width:1.78807"
         id="path21"
         cx="-246.21718"
         cy="-294.8118"
         rx="23.696192"
         ry="19.505409"
         transform="matrix(0.80970227,-0.58684089,0.89256024,0.45092818,0,0)"
         inkscape:transform-center-x="6.6527805"
         inkscape:transform-center-y="-0.36596561" />
      <rect
         style="fill:#05046a;fill-opacity:1"
         id="rect21"
         width="29.581396"
         height="4.604651"
         x="-462.77899"
         y="-7.8439946" />
      <rect
         style="fill:#05046a;fill-opacity:1;stroke-width:0.926396"
         id="rect22"
         width="10.325582"
         height="8.0232553"
         x="-443.24408"
         y="-13.913763" />
      <rect
         style="fill:#05046a;fill-opacity:1;stroke-width:0.987808"
         id="rect23"
         width="3.4883721"
         height="53.372093"
         x="-435.29062"
         y="-13.913763" />
      <ellipse
         style="fill:#05046a;fill-opacity:1;stroke-width:1.12835"
         id="path24"
         cx="-463.68594"
         cy="6.7374015"
         rx="18.209303"
         ry="10.813953" />
      <ellipse
         style="fill:#05046a;fill-opacity:1;stroke-width:1.02579"
         id="path25"
         cx="-154.93456"
         cy="432.96274"
         rx="5.8806"
         ry="12.385139"
         transform="matrix(0.27514375,0.9614031,-0.94478495,0.32769102,0,0)" />
      <ellipse
         style="fill:#05046a;fill-opacity:1"
         id="path26"
         cx="-429.10544"
         cy="-176.88979"
         rx="9"
         ry="2.9302325"
         transform="rotate(-21.744611)" />
      <path
         style="fill:#ffd60a;fill-opacity:1;stroke:url(#linearGradient30);stroke-width:0;stroke-dasharray:none"
         d="m -241.67442,385.8489 c -28.73699,-2.15829 -57.45683,-15.71846 -77.31945,-36.50664 -5.67737,-5.94192 -8.3976,-9.36886 -13.24901,-16.6911 -9.94718,-15.01329 -16.86135,-34.92184 -18.04898,-51.96995 l -0.37377,-5.3653 2.17003,-0.40614 c 3.64865,-0.68287 13.52627,-4.16631 19.73045,-6.95813 12.92392,-5.81562 24.51928,-13.88964 34.90468,-24.30464 13.36411,-13.4022 22.1403,-27.6126 27.9422,-45.24403 3.54335,-10.7679 5.82333,-24.5626 5.82478,-35.24195 l 4.7e-4,-3.44364 3.89337,-0.88553 c 5.7428,-1.30617 17.35231,-2.55278 23.77371,-2.55278 49.06921,0 93.36267,29.75704 110.81189,74.44516 9.51458,24.36719 10.15432,50.64417 1.84285,75.69437 -8.80827,26.54757 -26.92409,48.66269 -51.94181,63.40869 -20.23714,11.92819 -45.97756,17.82292 -69.96141,16.02161 z m 20.37209,-54.27507 c 5.57101,-1.42756 13.38304,-5.23502 18.13954,-8.84094 26.7237,-20.25928 31.88748,-62.37469 11.04188,-90.05682 -7.58708,-10.07536 -17.63236,-16.92458 -29.49779,-20.11262 -7.02342,-1.88708 -17.8135,-1.74613 -24.7999,0.32396 -6.93548,2.055 -13.13671,5.23387 -18.53106,9.49939 -24.23798,19.16589 -30.15786,57.42362 -13.08968,84.59328 8.73636,13.9068 21.00339,22.57679 35.99743,25.44193 5.34994,1.0223 14.97644,0.62861 20.73958,-0.84818 z"
         id="path30" />
    </g>
  </g>
</svg>
